<?xml version="1.0" encoding="utf-8"?>
<!-- Generator: Adobe Illustrator 21.1.0, SVG Export Plug-In . SVG Version: 6.00 Build 0)  -->
<svg version="1.1" id="Capa_1" xmlns="http://www.w3.org/2000/svg" xmlns:xlink="http://www.w3.org/1999/xlink" x="0px" y="0px"
	 viewBox="0 0 159.7 159.7" style="enable-background:new 0 0 159.7 159.7;" xml:space="preserve">
<style type="text/css">
	.st0{fill:#0C9BAA;}
	.st1{fill:#F0F0F0;}
	.st2{fill:#FFFFFF;}
	.st3{fill:#F7F7F7;}
</style>
<circle class="st0" cx="79.9" cy="79.9" r="79.9"/>
<g>
	<path class="st1" d="M120.4,67c-1.5-14.7-14-26.2-29.1-26.2c-2.8,0-5.5,0.4-8.1,1.1c11.2,3.3,19.7,13.1,20.9,25
		c6.2,2.4,10.6,8.2,10.6,15.3c0,9.2-7.5,16.5-16.7,16.5c9.2,0,16,0,16.2,0c9.2,0,16.7-7.2,16.7-16.5C131.1,75.3,126.7,69.5,120.4,67
		z"/>
	<path class="st2" d="M114.8,82.4c0-7.1-4.4-13-10.6-15.5c-1.2-12-9.7-21.7-20.9-25c-5.2,1.5-9.8,4.4-13.4,8.3
		c-2.1-0.8-4.5-1.3-6.9-1.3c-9.8,0-17.9,7.4-19,17c-8.6,0.7-15.3,7.6-15.3,16.4c0,9.2,7.5,16.5,16.7,16.5c0.5,0,32.5,0,52.8,0
		C107.4,98.8,114.8,91.6,114.8,82.4z"/>
	<path class="st2" d="M112,114.7c0,3.1-2.5,5.5-5.5,5.5c-3.1,0-5.5-2.5-5.5-5.5c0-3.1,5.5-8.6,5.5-8.6S112,111.7,112,114.7"/>
	<path class="st3" d="M106.5,106.1v14.1c3,0,5.5-2.5,5.5-5.5C112,111.7,106.5,106.1,106.5,106.1"/>
	<path class="st2" d="M87,114.7c0,3.1-2.5,5.5-5.5,5.5c-3.1,0-5.5-2.5-5.5-5.5c0-3.1,5.5-8.6,5.5-8.6S87,111.7,87,114.7"/>
	<path class="st3" d="M81.5,106.1v14.1c3,0,5.5-2.5,5.5-5.5C87,111.7,81.5,106.1,81.5,106.1"/>
	<path class="st2" d="M61.9,114.7c0,3.1-2.5,5.5-5.5,5.5c-3,0-5.5-2.5-5.5-5.5c0-3.1,5.5-8.6,5.5-8.6S61.9,111.7,61.9,114.7"/>
	<path class="st3" d="M56.4,106.1v14.1c3,0,5.5-2.5,5.5-5.5C61.9,111.7,56.4,106.1,56.4,106.1"/>
</g>
</svg>
