<?xml version="1.0" encoding="utf-8"?>
<!-- Generator: Adobe Illustrator 21.1.0, SVG Export Plug-In . SVG Version: 6.00 Build 0)  -->
<svg version="1.1" id="Capa_1" xmlns="http://www.w3.org/2000/svg" xmlns:xlink="http://www.w3.org/1999/xlink" x="0px" y="0px"
	 viewBox="0 0 159.7 159.7" style="enable-background:new 0 0 159.7 159.7;" xml:space="preserve">
<style type="text/css">
	.st0{fill:#0C9BAA;}
	.st1{fill:#FFFFFF;}
	.st2{opacity:3.000000e-02;enable-background:new    ;}
	.st3{fill:#F4F4F4;}
	.st4{fill:#F7F7F7;}
</style>
<circle class="st0" cx="79.9" cy="79.9" r="79.9"/>
<g>
	<g>
		<path class="st1" d="M96.6,53c-1.3-12.4-11.8-22.1-24.5-22.1c-2.3,0-4.6,0.3-6.7,0.9c0,0-0.1,0-0.1,0c-4.4,1.3-8.3,3.7-11.3,7
			c-1.8-0.7-3.8-1.1-5.8-1.1c-8.3,0-15.1,6.3-16,14.3c-7.2,0.6-12.9,6.5-12.9,13.9c0,7.8,6.3,14,14.1,14c0.4,0,27.4,0,44.5,0
			c7.8,0,13.5,0,13.7,0c7.8,0,14.1-6.2,14.1-14C105.6,60,101.9,55.1,96.6,53z"/>
		<path class="st2" d="M96.6,53c-1.3-12.4-11.8-22.1-24.5-22.1c-2.4,0-4.7,0.3-6.8,1c9.5,2.7,16.6,11,17.7,21.1c5.3,2,9,6.9,9,12.9
			c0,7.8-6.3,13.9-14.1,13.9c7.8,0,13.5,0,13.7,0c7.8,0,14.1-6.1,14.1-13.9C105.6,60,101.9,55.1,96.6,53z"/>
		<path class="st3" d="M130.2,66.2C128.8,52,116.8,41,102.2,41c-2.7,0-5.3,0.4-7.7,1.1c0,0-0.1,0-0.1,0c-5,1.4-9.5,4.3-12.9,8
			c-2.1-0.8-4.3-1.2-6.7-1.2c-9.5,0-17.3,7.2-18.3,16.4c-8.3,0.7-14.8,7.4-14.8,15.9C41.8,89.9,49,97,57.9,97c0.4,0,31.3,0,50.8,0
			c8.9,0,15.4,0,15.6,0c8.9,0,16.1-7,16.1-15.9C140.5,74.2,136.2,68.5,130.2,66.2z"/>
		<path class="st2" d="M130.2,66.2C128.8,52,116.8,41,102.2,41c-2.7,0-5.3,0.4-7.8,1.1c10.8,3.1,19,12.6,20.2,24.1
			c6,2.3,10.3,7.9,10.3,14.8c0,8.9-7.2,15.9-16.1,15.9c8.9,0,15.4,0,15.6,0c8.9,0,16.1-7,16.1-15.9
			C140.5,74.1,136.2,68.5,130.2,66.2z"/>
	</g>
	<g>
		<path class="st1" d="M123,112.5c0,3.1-2.5,5.5-5.5,5.5c-3.1,0-5.5-2.5-5.5-5.5c0-3.1,5.5-8.6,5.5-8.6S123,109.4,123,112.5"/>
		<path class="st4" d="M117.5,103.9V118c3,0,5.5-2.5,5.5-5.5C123,109.4,117.5,103.9,117.5,103.9"/>
		<path class="st1" d="M98,112.5c0,3.1-2.5,5.5-5.5,5.5c-3.1,0-5.5-2.5-5.5-5.5c0-3.1,5.5-8.6,5.5-8.6S98,109.4,98,112.5"/>
		<path class="st4" d="M92.4,103.9V118c3,0,5.5-2.5,5.5-5.5C98,109.4,92.4,103.9,92.4,103.9"/>
		<path class="st1" d="M72.9,112.5c0,3.1-2.5,5.5-5.5,5.5c-3.1,0-5.5-2.5-5.5-5.5c0-3.1,5.5-8.6,5.5-8.6S72.9,109.4,72.9,112.5"/>
		<path class="st4" d="M67.4,103.9V118c3,0,5.5-2.5,5.5-5.5C72.9,109.4,67.4,103.9,67.4,103.9"/>
		<path class="st1" d="M110.5,129.4c0,3.1-2.5,5.5-5.5,5.5c-3.1,0-5.5-2.5-5.5-5.5c0-3.1,5.5-8.6,5.5-8.6S110.5,126.4,110.5,129.4"
			/>
		<path class="st4" d="M105,120.8v14.1c3,0,5.5-2.5,5.5-5.5C110.5,126.4,105,120.8,105,120.8"/>
		<path class="st1" d="M85.4,129.4c0,3.1-2.5,5.5-5.5,5.5c-3.1,0-5.5-2.5-5.5-5.5c0-3.1,5.5-8.6,5.5-8.6S85.4,126.4,85.4,129.4"/>
		<path class="st4" d="M79.9,120.8v14.1c3,0,5.5-2.5,5.5-5.5C85.4,126.4,79.9,120.8,79.9,120.8"/>
		<path class="st1" d="M47.8,112.5c0,3.1-2.5,5.5-5.5,5.5c-3,0-5.5-2.5-5.5-5.5c0-3.1,5.5-8.6,5.5-8.6S47.8,109.4,47.8,112.5"/>
		<path class="st4" d="M42.3,103.9V118c3,0,5.5-2.5,5.5-5.5C47.8,109.4,42.3,103.9,42.3,103.9"/>
		<path class="st1" d="M60.3,129.4c0,3.1-2.5,5.5-5.5,5.5c-3,0-5.5-2.5-5.5-5.5c0-3.1,5.5-8.6,5.5-8.6S60.3,126.4,60.3,129.4"/>
		<path class="st4" d="M54.8,120.8v14.1c3,0,5.5-2.5,5.5-5.5C60.3,126.4,54.8,120.8,54.8,120.8"/>
	</g>
</g>
</svg>
