<?xml version="1.0" encoding="utf-8"?>
<!-- Generator: Adobe Illustrator 21.1.0, SVG Export Plug-In . SVG Version: 6.00 Build 0)  -->
<svg version="1.1" id="Capa_1" xmlns="http://www.w3.org/2000/svg" xmlns:xlink="http://www.w3.org/1999/xlink" x="0px" y="0px"
	 viewBox="0 0 159.7 159.7" style="enable-background:new 0 0 159.7 159.7;" xml:space="preserve">
<style type="text/css">
	.st0{fill:#0C9BAA;}
	.st1{fill:#F0F0F0;}
	.st2{fill:#FFFFFF;}
	.st3{fill:#F7F7F7;}
</style>
<circle class="st0" cx="79.9" cy="79.9" r="79.9"/>
<g>
	<path class="st1" d="M119.4,62.1c-1.5-14.7-14-26.2-29.1-26.2c-2.8,0-5.5,0.4-8.1,1.1c11.2,3.3,19.7,13.1,20.9,25
		c6.2,2.4,10.6,8.2,10.6,15.3c0,9.2-7.5,16.5-16.7,16.5c9.2,0,16,0,16.2,0c9.2,0,16.7-7.2,16.7-16.5
		C130.1,70.4,125.7,64.6,119.4,62.1z"/>
	<path class="st2" d="M113.8,77.4c0-7.1-4.4-13-10.6-15.5c-1.2-12-9.7-21.7-20.9-25c-5.2,1.5-9.8,4.4-13.4,8.3
		c-2.1-0.8-4.5-1.3-6.9-1.3c-9.8,0-17.9,7.4-19,17c-8.6,0.7-15.3,7.6-15.3,16.4c0,9.2,7.5,16.5,16.7,16.5c0.5,0,32.5,0,52.8,0
		C106.4,93.9,113.8,86.7,113.8,77.4z"/>
	<path class="st2" d="M111.1,109.8c0,3.1-2.5,5.5-5.5,5.5c-3.1,0-5.5-2.5-5.5-5.5c0-3.1,5.5-8.6,5.5-8.6S111.1,106.7,111.1,109.8"/>
	<path class="st3" d="M105.5,101.2v14.1c3,0,5.5-2.5,5.5-5.5C111.1,106.7,105.5,101.2,105.5,101.2"/>
	<path class="st2" d="M86,109.8c0,3.1-2.5,5.5-5.5,5.5c-3.1,0-5.5-2.5-5.5-5.5c0-3.1,5.5-8.6,5.5-8.6S86,106.7,86,109.8"/>
	<path class="st3" d="M80.5,101.2v14.1c3,0,5.5-2.5,5.5-5.5C86,106.7,80.5,101.2,80.5,101.2"/>
	<path class="st2" d="M60.9,109.8c0,3.1-2.5,5.5-5.5,5.5c-3,0-5.5-2.5-5.5-5.5c0-3.1,5.5-8.6,5.5-8.6S60.9,106.7,60.9,109.8"/>
	<path class="st3" d="M55.4,101.2v14.1c3,0,5.5-2.5,5.5-5.5C60.9,106.7,55.4,101.2,55.4,101.2"/>
	<path class="st2" d="M98.5,126.7c0,3.1-2.5,5.5-5.5,5.5c-3.1,0-5.5-2.5-5.5-5.5s5.5-8.6,5.5-8.6S98.5,123.7,98.5,126.7"/>
	<path class="st3" d="M93,118.1v14.1c3,0,5.5-2.5,5.5-5.5S93,118.1,93,118.1"/>
	<path class="st2" d="M73.4,126.7c0,3.1-2.5,5.5-5.5,5.5c-3.1,0-5.5-2.5-5.5-5.5s5.5-8.6,5.5-8.6S73.4,123.7,73.4,126.7"/>
	<path class="st3" d="M67.9,118.1v14.1c3,0,5.5-2.5,5.5-5.5S67.9,118.1,67.9,118.1"/>
</g>
</svg>
