<?xml version="1.0" encoding="utf-8"?>
<!-- Generator: Adobe Illustrator 21.1.0, SVG Export Plug-In . SVG Version: 6.00 Build 0)  -->
<svg version="1.1" id="weather-2" xmlns="http://www.w3.org/2000/svg" xmlns:xlink="http://www.w3.org/1999/xlink" x="0px" y="0px"
	 viewBox="0 0 159.7 159.7" style="enable-background:new 0 0 159.7 159.7;" xml:space="preserve">
<style type="text/css">
	.st0{fill:#0C9BAA;}
	.st1{fill:#F0F0F0;}
	.st2{fill:#FFFFFF;}
</style>
<circle class="st0" cx="79.9" cy="79.8" r="79.9"/>
<g>
	<g>
		<path class="st1" d="M117.8,62.7c-1.5-14.7-14-26.2-29.1-26.2c-2.8,0-5.5,0.4-8.1,1.1c11.2,3.3,19.7,13.1,20.9,25
			c6.2,2.4,10.6,8.2,10.6,15.3c0,9.2-7.5,16.5-16.7,16.5c9.2,0,16,0,16.2,0c9.2,0,16.7-7.2,16.7-16.5C128.5,71,124,65.2,117.8,62.7z
			"/>
		<path class="st2" d="M112.2,78.1c0-7.1-4.4-13-10.6-15.5c-1.2-12-9.7-21.7-20.9-25c-5.2,1.5-9.8,4.4-13.4,8.3
			c-2.1-0.8-4.5-1.3-6.9-1.3c-9.8,0-17.9,7.4-19,17c-8.6,0.7-15.3,7.6-15.3,16.4c0,9.2,7.5,16.5,16.7,16.5c0.5,0,32.5,0,52.8,0
			C104.7,94.5,112.2,87.3,112.2,78.1z"/>
	</g>
	<g>
		<g>
			<path class="st2" d="M77.9,125.5c-1.4,0-2.5-1.1-2.5-2.5v-20c0-1.4,1.1-2.5,2.5-2.5s2.5,1.1,2.5,2.5v20
				C80.4,124.4,79.2,125.5,77.9,125.5z"/>
			<path class="st2" d="M87.4,116h-20c-1.4,0-2.5-1.1-2.5-2.5s1.1-2.5,2.5-2.5h20c1.4,0,2.5,1.1,2.5,2.5S88.7,116,87.4,116z"/>
			<path class="st2" d="M70.5,122.9c-0.6,0-1.3-0.2-1.8-0.7c-1-1-1-2.6,0-3.5l14.5-14.5c1-1,2.6-1,3.5,0s1,2.6,0,3.5l-14.5,14.5
				C71.8,122.7,71.2,122.9,70.5,122.9z"/>
			<path class="st2" d="M84.7,122.9c-0.6,0-1.3-0.2-1.8-0.7l-14.5-14.5c-1-1-1-2.6,0-3.5c1-1,2.6-1,3.5,0l14.5,14.5c1,1,1,2.6,0,3.5
				C85.9,122.7,85.3,122.9,84.7,122.9z"/>
		</g>
		<g>
			<path class="st2" d="M107.9,125.5c-1.4,0-2.5-1.1-2.5-2.5v-20c0-1.4,1.1-2.5,2.5-2.5s2.5,1.1,2.5,2.5v20
				C110.4,124.4,109.2,125.5,107.9,125.5z"/>
			<path class="st2" d="M117.4,116h-20c-1.4,0-2.5-1.1-2.5-2.5s1.1-2.5,2.5-2.5h20c1.4,0,2.5,1.1,2.5,2.5S118.7,116,117.4,116z"/>
			<path class="st2" d="M100.5,122.9c-0.6,0-1.3-0.2-1.8-0.7c-1-1-1-2.6,0-3.5l14.5-14.5c1-1,2.6-1,3.5,0s1,2.6,0,3.5l-14.5,14.5
				C101.8,122.7,101.2,122.9,100.5,122.9z"/>
			<path class="st2" d="M114.7,122.9c-0.6,0-1.3-0.2-1.8-0.7l-14.5-14.5c-1-1-1-2.6,0-3.5s2.6-1,3.5,0l14.5,14.5c1,1,1,2.6,0,3.5
				C115.9,122.7,115.3,122.9,114.7,122.9z"/>
		</g>
		<g>
			<path class="st2" d="M47.9,125.5c-1.4,0-2.5-1.1-2.5-2.5v-20c0-1.4,1.1-2.5,2.5-2.5s2.5,1.1,2.5,2.5v20
				C50.4,124.4,49.2,125.5,47.9,125.5z"/>
			<path class="st2" d="M57.4,116h-20c-1.4,0-2.5-1.1-2.5-2.5s1.1-2.5,2.5-2.5h20c1.4,0,2.5,1.1,2.5,2.5S58.7,116,57.4,116z"/>
			<path class="st2" d="M40.5,122.9c-0.6,0-1.3-0.2-1.8-0.7c-1-1-1-2.6,0-3.5l14.5-14.5c1-1,2.6-1,3.5,0c1,1,1,2.6,0,3.5l-14.5,14.5
				C41.8,122.7,41.2,122.9,40.5,122.9z"/>
			<path class="st2" d="M54.7,122.9c-0.6,0-1.3-0.2-1.8-0.7l-14.5-14.5c-1-1-1-2.6,0-3.5c1-1,2.6-1,3.5,0l14.5,14.5c1,1,1,2.6,0,3.5
				C55.9,122.7,55.3,122.9,54.7,122.9z"/>
		</g>
	</g>
</g>
</svg>
