<?xml version="1.0" encoding="utf-8"?>
<!-- Generator: Adobe Illustrator 21.1.0, SVG Export Plug-In . SVG Version: 6.00 Build 0)  -->
<svg version="1.1" id="Capa_1" xmlns="http://www.w3.org/2000/svg" xmlns:xlink="http://www.w3.org/1999/xlink" x="0px" y="0px"
	 viewBox="0 0 159.7 159.7" style="enable-background:new 0 0 159.7 159.7;" xml:space="preserve">
<style type="text/css">
	.st0{fill:#0C9BAA;}
	.st1{fill:#FFFFFF;}
	.st2{fill:#F7F7F7;}
</style>
<circle class="st0" cx="79.9" cy="79.9" r="79.9"/>
<g>
	<path class="st1" d="M118.5,77.6h-11.3l6.9-5.1c1-0.7,1.2-2.1,0.5-3.1c-0.7-1-2.1-1.2-3.1-0.4l-11.7,8.6H85.2l10.4-10.4l14.2-2.2
		c1.2-0.2,2-1.3,1.8-2.5c-0.2-1.2-1.3-2-2.5-1.8l-8.3,1.3l7.9-7.9c0.9-0.9,0.9-2.2,0-3.1c-0.9-0.9-2.2-0.9-3.1,0l-8,8l1.3-8.5
		c0.2-1.2-0.6-2.3-1.8-2.5c-1.2-0.2-2.3,0.6-2.5,1.8l-2,14.4L82.6,74.4V59.7l8.2-11.6c0.7-1,0.4-2.3-0.6-3.1c-1-0.7-2.2-0.5-2.9,0.5
		l-4.8,6.8V41.1c0-1.2-1.3-2.2-2.5-2.2s-2.5,1-2.5,2.2v11.3l-5-7c-0.7-1-2-1.2-3-0.5s-1.2,2.1-0.5,3.1l8.5,11.8v14.6L67.3,64
		l-2.2-14.3c-0.2-1.2-1.3-2-2.5-1.8c-1.2,0.2-2,1.3-1.8,2.5l1.3,8.4l-7.9-7.9c-0.9-0.9-2.2-0.9-3.1,0c-0.9,0.9-0.9,2.2,0,3.1
		l7.9,7.9l-8.4-1.3c-1.2-0.2-2.3,0.6-2.5,1.8c-0.2,1.2,0.6,2.3,1.8,2.5l14.3,2.3l10.4,10.4H60L48.3,69c-1-0.7-2.3-0.5-3,0.5
		c-0.7,1-0.5,2.4,0.5,3.1l6.9,5H41.4c-1.2,0-2.2,0.8-2.2,2s1,2,2.2,2h11.2l-6.9,5.2c-1,0.7-1.2,2.2-0.5,3.1c0.7,1,2.1,1.1,3,0.4
		L60,81.6h14.7L64.4,92L50,94.4c-1.2,0.2-2,1.3-1.8,2.5c0.2,1.2,1.5,2,2.5,1.8v0l8.5-1.3l-8,8c-0.9,0.9-0.8,2.2,0,3.1
		c0.9,0.9,2.2,0.9,3.1,0l7.9-7.9l-1.3,8.3c-0.2,1.2,0.6,2.3,1.8,2.5c1.2,0.2,2.3-0.6,2.5-1.8l2.2-14.2L77.6,85v14.6l-8.5,11.8
		c-0.7,1-0.5,2.3,0.5,3c1,0.7,2.3,0.5,3-0.5l5-7v11.3c0,1.2,1.3,2.2,2.5,2.2s2.5-1,2.5-2.2v-11.2l4.7,6.8c0.7,1,2,1.2,2.9,0.5
		c1-0.7,1.4-2.1,0.7-3l-8.3-11.6V85l10.1,10.3l2.1,14.3c0.2,1.2,1.2,2,2.4,1.8c1.2-0.2,2-1.3,1.8-2.5l-1.3-8.4l8,8
		c0.9,0.9,2.2,0.9,3.1,0c0.9-0.9,0.9-2.2,0-3.1l-8-8l8.4,1.3c1.2,0.2,2.3-0.6,2.5-1.8c0.2-1.2-0.6-2.3-1.8-2.5L95.5,92L85.2,81.6
		h14.6l11.7,8.7c1,0.7,2.3,0.6,3.1-0.4c0.7-1,0.5-2.4-0.5-3.2l-6.9-5.1h11.3c1.2,0,2.2-0.8,2.2-2C120.7,78.4,119.7,77.6,118.5,77.6"
		/>
	<path class="st2" d="M80.1,38.9v81.5c1.2,0,2.5-1,2.5-2.2v-11.2l4.7,6.8c0.4,0.6,1,0.9,1.7,0.9c0.4,0,0.9-0.1,1.2-0.4
		c0.6-0.5,1-1.2,1-1.9c0-0.4-0.1-0.8-0.4-1.1l-8.3-11.6V85l10.1,10.3l2.1,14.3c0.2,1.1,1,1.8,2.1,1.8c0.1,0,0.2,0,0.3,0
		c1.1-0.2,1.8-1.1,1.8-2.1c0-0.1,0-0.2,0-0.3l-1.3-8.4l8,8c0.4,0.4,1,0.6,1.5,0.6s1.1-0.2,1.5-0.6c0.4-0.4,0.6-1,0.6-1.5
		c0-0.6-0.2-1.1-0.6-1.5l-8-8l8.4,1.3c0.1,0,0.2,0,0.3,0c1.1,0,2-0.8,2.2-1.8c0-0.1,0-0.2,0-0.3c0-1.1-0.8-2-1.8-2.2L95.5,92
		L85.2,81.6h14.6l11.7,8.7c0.4,0.3,0.9,0.4,1.4,0.4c0.7,0,1.3-0.3,1.7-0.9c0.3-0.4,0.4-0.9,0.4-1.3c0-0.7-0.3-1.4-0.9-1.8l-6.9-5.1
		h11.3c1.2,0,2.2-0.8,2.2-2s-1-2-2.2-2h-11.3l6.9-5.1c0.6-0.4,0.9-1.1,0.9-1.8c0-0.5-0.1-0.9-0.4-1.3c-0.4-0.6-1.1-0.9-1.7-0.9
		c-0.5,0-0.9,0.1-1.3,0.4l-11.7,8.6H85.2l10.4-10.4l14.2-2.2c1.1-0.2,1.8-1.1,1.8-2.2c0-0.1,0-0.2,0-0.3c-0.2-1.1-1.1-1.8-2.2-1.8
		c-0.1,0-0.2,0-0.3,0l-8.3,1.3l7.9-7.9c0.4-0.4,0.6-1,0.6-1.5c0-0.6-0.2-1.1-0.6-1.5c-0.4-0.4-1-0.6-1.5-0.6c-0.6,0-1.1,0.2-1.5,0.6
		l-8,8l1.3-8.5c0-0.1,0-0.2,0-0.3c0-1.1-0.8-2-1.8-2.1c-0.1,0-0.2,0-0.3,0c-1.1,0-2,0.8-2.2,1.8l-2,14.4L82.6,74.4V59.7l8.2-11.6
		c0.3-0.4,0.4-0.8,0.4-1.2c0-0.7-0.4-1.4-1-1.9c-0.4-0.3-0.8-0.4-1.2-0.4c-0.6,0-1.2,0.3-1.6,0.9l-4.8,6.8V41.1
		C82.6,39.9,81.3,38.9,80.1,38.9"/>
</g>
</svg>
