<?xml version="1.0" encoding="utf-8"?>
<!-- Generator: Adobe Illustrator 21.1.0, SVG Export Plug-In . SVG Version: 6.00 Build 0)  -->
<svg version="1.1" id="Capa_1" xmlns="http://www.w3.org/2000/svg" xmlns:xlink="http://www.w3.org/1999/xlink" x="0px" y="0px"
	 viewBox="0 0 159.7 159.7" style="enable-background:new 0 0 159.7 159.7;" xml:space="preserve">
<style type="text/css">
	.st0{fill:#0C9BAA;}
	.st1{fill:#F0F0F0;}
	.st2{fill:#FFFFFF;}
	.st3{fill:#F6D100;}
	.st4{fill:#EAC300;}
</style>
<circle class="st0" cx="79.9" cy="79.9" r="79.9"/>
<g>
	<path class="st1" d="M120.3,59c-1.5-14.7-14-26.2-29.1-26.2c-2.8,0-5.5,0.4-8.1,1.1C94.3,37.2,102.8,47,104,59
		c6.2,2.4,10.6,8.2,10.6,15.3c0,9.2-7.5,16.5-16.7,16.5c9.2,0,16,0,16.2,0c9.2,0,16.7-7.2,16.7-16.5C130.9,67.2,126.5,61.4,120.3,59
		z"/>
	<path class="st2" d="M114.7,74.3c0-7.1-4.4-13-10.6-15.5c-1.2-12-9.7-21.7-20.9-25c-5.2,1.5-9.8,4.4-13.4,8.3
		c-2.1-0.8-4.5-1.3-6.9-1.3c-9.8,0-17.9,7.4-19,17c-8.6,0.7-15.3,7.6-15.3,16.4c0,9.2,7.5,16.5,16.7,16.5c0.5,0,32.5,0,52.8,0
		C107.2,90.8,114.7,83.6,114.7,74.3z"/>
</g>
<g>
	<polygon class="st3" points="68.6,139.1 98.5,114.9 91.8,114.9 85.4,114.9 94.1,96.9 87.4,96.9 70.8,96.9 60.9,124.9 66.4,124.9 
		73.1,124.9 70.9,132 	"/>
	<g>
		<polygon class="st4" points="98.5,114.9 91.8,114.9 70.9,131.9 68.6,139.2 		"/>
		<polygon class="st4" points="85.4,114.9 94.1,96.9 87.4,96.9 78.8,114.9 		"/>
	</g>
</g>
</svg>
